<?xml version="1.0" encoding="UTF-8"?>
<svg xmlns="http://www.w3.org/2000/svg" width="300" height="50" viewBox="0 0 300 50" fill="none">
  <g clip-path="url(#clip0_1672_1825)">
    <path d="M149.337 25.2744C150.085 24.6329 150.449 23.8204 150.449 22.8154C150.385 19.3086 149.743 16.1654 148.503 13.3856C147.263 10.6058 145.638 8.21098 143.606 6.17962C141.575 4.14825 139.244 2.6087 136.593 1.56094C133.941 0.534569 131.204 0 128.36 0C124.533 0 120.919 1.00499 117.498 2.99359C114.077 5.00356 111.318 7.89024 109.18 11.675C107.063 15.4597 105.994 20.0356 105.994 25.4027C105.994 30.2138 107.021 34.4476 109.052 38.1041C111.083 41.7605 113.949 44.6472 117.648 46.7427C121.347 48.8382 125.688 49.886 130.67 49.886C134.006 49.886 137.127 49.1803 140.057 47.7691C142.986 46.3578 145.338 44.69 147.113 42.7869C148.097 41.9316 148.589 40.9694 148.589 39.9216C148.589 39.0663 148.289 38.3179 147.669 37.6978C147.049 37.0777 146.322 36.7783 145.445 36.7783C144.633 36.7783 143.842 37.0563 143.05 37.6123C142.238 38.4676 141.276 39.3229 140.142 40.1568C139.009 40.9907 137.641 41.675 136.037 42.2309C134.433 42.7869 132.552 43.0649 130.392 43.0649C126.949 43.0649 123.934 42.2737 121.347 40.7128C118.76 39.1518 116.75 37.0135 115.296 34.2979C114.034 31.9458 113.328 29.273 113.157 26.258H146.75C147.733 26.258 148.589 25.9373 149.337 25.2958M117.968 11.119C119.423 9.70777 121.048 8.66001 122.865 7.97577C124.683 7.29152 126.522 6.97078 128.36 6.97078C130.648 6.97078 132.808 7.46258 134.882 8.44619C136.935 9.42979 138.71 10.8411 140.142 12.6586C141.596 14.4761 142.409 16.6358 142.58 19.1803V19.9287H113.564C113.777 18.7741 114.077 17.6835 114.462 16.6999C115.36 14.412 116.514 12.5731 117.968 11.1618" fill="#040305"></path>
    <path d="M206.899 24.9322C206.899 29.7433 205.83 34.0199 203.713 37.7832C201.596 41.5466 198.731 44.4974 195.117 46.6571C191.525 48.8167 187.462 49.8859 182.972 49.8859C178.481 49.8859 174.419 48.8167 170.784 46.6571C167.149 44.4974 164.262 41.5466 162.145 37.7832C160.028 34.0199 158.959 29.7433 158.959 24.9322C158.959 20.1211 160.028 15.8445 162.145 12.0812C164.262 8.31779 167.149 5.36697 170.784 3.20731C174.419 1.04765 178.481 -0.0214844 182.972 -0.0214844C187.462 -0.0214844 191.525 1.06904 195.117 3.20731C198.71 5.36697 201.575 8.31779 203.713 12.0812C205.851 15.8445 206.899 20.1211 206.899 24.9322ZM199.415 24.9322C199.415 21.3613 198.688 18.2394 197.256 15.5452C195.801 12.8723 193.834 10.734 191.354 9.1731C188.852 7.61216 186.072 6.821 182.993 6.821C179.914 6.821 177.027 7.61216 174.547 9.1731C172.045 10.734 170.057 12.8723 168.581 15.5452C167.106 18.218 166.357 21.3613 166.357 24.9322C166.357 28.5031 167.106 31.5608 168.581 34.2551C170.057 36.9707 172.045 39.109 174.547 40.6699C177.049 42.2308 179.85 43.022 182.993 43.022C186.136 43.022 188.852 42.2308 191.354 40.6699C193.856 39.109 195.823 36.9493 197.256 34.2551C198.71 31.5395 199.415 28.439 199.415 24.9322Z" fill="#040305"></path>
    <path d="M215.196 41.397C214.704 40.6058 214.469 39.7505 214.512 38.8525C214.533 37.9544 215.046 37.1846 216.03 36.5004C216.714 36.0727 217.463 35.8803 218.297 35.9444C219.13 36.0086 219.879 36.4148 220.563 37.1418C222.295 39.1732 224.262 40.7983 226.465 41.9957C228.689 43.1932 231.383 43.7919 234.59 43.7919C236.001 43.7277 237.477 43.4925 238.974 43.0649C240.492 42.6372 241.753 41.8888 242.758 40.7983C243.785 39.7292 244.277 38.2965 244.277 36.5004C244.277 34.7042 243.763 33.3999 242.716 32.3949C241.668 31.3685 240.299 30.556 238.61 29.8931C236.921 29.2516 235.125 28.6743 233.2 28.1825C231.169 27.6265 229.159 27.0064 227.192 26.3435C225.225 25.6593 223.45 24.7826 221.889 23.7135C220.328 22.6443 219.066 21.2758 218.104 19.6507C217.142 18.0257 216.671 15.9943 216.671 13.5994C216.671 10.8197 217.42 8.4248 218.938 6.39344C220.456 4.36208 222.466 2.80114 224.989 1.68924C227.512 0.555952 230.314 0 233.393 0C235.125 0 236.921 0.192445 238.803 0.598717C240.684 1.00499 242.502 1.66785 244.298 2.63008C246.094 3.5923 247.655 4.89665 249.002 6.5645C249.558 7.1846 249.857 7.95438 249.922 8.87384C249.986 9.7933 249.579 10.6272 248.724 11.3756C248.04 11.8674 247.292 12.1026 246.458 12.0599C245.624 12.0385 244.939 11.7391 244.383 11.1832C243.036 9.57947 241.39 8.36066 239.444 7.52673C237.498 6.6928 235.36 6.28653 233.029 6.28653C231.618 6.28653 230.207 6.52174 228.774 6.97078C227.363 7.4412 226.165 8.14683 225.225 9.15182C224.284 10.1568 223.792 11.5253 223.792 13.3001C223.856 14.9679 224.412 16.315 225.46 17.3628C226.508 18.4105 227.919 19.2659 229.715 19.9073C231.49 20.5488 233.478 21.1903 235.617 21.8104C237.584 22.3022 239.487 22.8795 241.304 23.521C243.122 24.1625 244.768 25.0178 246.244 26.0656C247.719 27.1133 248.895 28.4604 249.751 30.0855C250.606 31.7106 251.034 33.7634 251.034 36.2224C251.034 39.0663 250.221 41.5039 248.639 43.5567C247.035 45.6308 244.939 47.1917 242.309 48.2609C239.679 49.33 236.878 49.886 233.863 49.886C230.485 49.886 227.128 49.2445 223.792 47.9829C220.456 46.7213 217.591 44.5189 215.196 41.3756" fill="#040305"></path>
    <path d="M282.916 0C286.123 0 288.988 0.342124 291.511 1.02637C294.035 1.71062 296.045 2.63008 297.52 3.80613C298.995 4.98218 299.744 6.30791 299.744 7.78332C299.744 8.63863 299.466 9.45118 298.91 10.1782C298.354 10.9266 297.584 11.2901 296.6 11.2901C295.809 11.2901 295.146 11.119 294.612 10.7769C294.099 10.4348 293.607 10.0285 293.136 9.57947C292.666 9.10905 292.046 8.6814 291.255 8.23236C290.506 7.86885 289.437 7.54811 288.026 7.27014C286.615 6.99216 285.182 6.86386 283.771 6.86386C280.392 6.86386 277.42 7.67641 274.854 9.25873C272.288 10.8624 270.278 13.0221 268.803 15.7163C267.327 18.4319 266.579 21.511 266.579 24.9537C266.579 28.3963 267.285 31.4754 268.696 34.191C270.107 36.9066 272.074 39.0663 274.619 40.67C277.142 42.2737 280.072 43.0649 283.386 43.0649C285.546 43.0649 287.256 42.8724 288.518 42.5089C289.779 42.1454 290.87 41.7177 291.789 41.2046C292.837 40.5845 293.65 39.9644 294.248 39.3656C294.826 38.7455 295.638 38.4462 296.686 38.4462C297.734 38.4462 298.546 38.7883 299.145 39.4512C299.744 40.114 300.022 40.9694 300.022 41.953C300.022 43.129 299.252 44.3264 297.712 45.5453C296.173 46.7855 294.077 47.8118 291.426 48.6458C288.774 49.4797 285.824 49.886 282.552 49.886C277.869 49.886 273.785 48.7954 270.257 46.6144C266.75 44.4334 264.013 41.4398 262.089 37.655C260.143 33.8703 259.181 29.6365 259.181 24.9537C259.181 20.2708 260.186 16.0584 262.174 12.2951C264.184 8.53172 266.964 5.55952 270.535 3.33571C274.106 1.1119 278.233 0 282.916 0Z" fill="#040305"></path>
    <path d="M38.446 3.99857C34.4047 1.38988 29.7219 0 24.9108 0C20.0996 0 15.3954 1.38988 11.3541 3.99857C10.5202 4.53314 9.98559 5.40984 9.90006 6.39344C9.79315 7.39843 10.1353 8.38204 10.8623 9.10905L12.2094 10.4562C12.8509 11.0976 13.6848 11.4398 14.5401 11.4398C15.1388 11.4398 15.7162 11.2687 16.2507 10.948C18.8594 9.34426 21.853 8.48895 24.9108 8.48895C27.9685 8.48895 30.9621 9.34426 33.5494 10.948C34.8537 11.7391 36.5002 11.5467 37.5907 10.4562L38.9378 9.10905C39.6435 8.40342 40.007 7.39843 39.9001 6.39344C39.7931 5.40984 39.2586 4.53314 38.446 3.99857Z" fill="#008691"></path>
    <path d="M21.0621 41.2471C13.514 39.451 8.23246 32.8009 8.23246 25.039C8.23246 21.9599 9.08777 18.9449 10.7129 16.3362C11.4826 15.096 11.2902 13.4923 10.2424 12.4445L8.89533 11.0974C8.21108 10.4132 7.24885 10.0711 6.28663 10.178C5.34579 10.2849 4.49048 10.7981 3.99868 11.5892C1.38998 15.6092 0.0214844 20.2706 0.0214844 25.0604C0.0214844 36.714 8.27522 46.9349 19.6508 49.3939C19.8647 49.4367 20.0785 49.4581 20.3137 49.4581C21.0193 49.4581 21.7036 49.2229 22.2809 48.7524C23.0507 48.1323 23.4784 47.2343 23.4784 46.2507V44.369C23.4784 42.8936 22.4734 41.5892 21.1049 41.2685" fill="#EB5D81"></path>
    <path d="M66.4579 0.128418C52.7302 0.128418 41.5684 11.2902 41.5684 25.0179V25.1249V25.2532C41.4615 33.0579 35.8164 39.8362 28.1614 41.3544C27.1136 41.5682 26.3652 42.4877 26.3652 43.5568V47.3629C26.3652 48.0258 26.6646 48.6673 27.1564 49.0949C27.6482 49.5226 28.3111 49.6936 28.9312 49.5867C41.0124 47.6195 49.8007 37.2703 49.8007 25.0179C49.8007 15.8234 57.2847 8.36078 66.4579 8.36078C75.6311 8.36078 83.115 15.8447 83.115 25.0179C83.115 34.1911 75.6311 41.6751 66.4579 41.6751C64.1913 41.6751 62.331 43.514 62.331 45.7806C62.331 48.0472 64.1699 49.8861 66.4579 49.8861C80.1856 49.8861 91.3474 38.7243 91.3474 24.9966C91.3474 11.2688 80.1856 0.128418 66.4579 0.128418Z" fill="#008691"></path>
  </g>
  <defs>
    <clipPath id="clip0_1672_1825">
      <rect width="300" height="49.9287" fill="white"></rect>
    </clipPath>
  </defs>
</svg>
