<?xml version="1.0" encoding="utf-8"?>
<!-- Generator: Adobe Illustrator 27.1.1, SVG Export Plug-In . SVG Version: 6.00 Build 0)  -->
<svg version="1.1" id="Layer_1" xmlns="http://www.w3.org/2000/svg" xmlns:xlink="http://www.w3.org/1999/xlink" x="0px" y="0px"
	 viewBox="0 0 500 141" style="enable-background:new 0 0 500 141;" xml:space="preserve">
<style type="text/css">
	.st0{fill:#F7911E;}
	.st1{fill:#55C0AC;}
	.st2{fill:#F5EB00;}
</style>
<path d="M182.1,39.5c-1,0-1.8,0.7-2,1.7l-13.1,71c-0.3,1.3,0.8,2.6,2.1,2.6h6.6c1.1,0,2-0.8,2.2-1.8l7.9-47.6l19.3,48.9
	c0.3,0.7,0.9,1.1,1.7,1.1h2.6c0.7,0,1.4-0.5,1.7-1.1l18.9-48.7l8,47c0.2,1,1.1,1.8,2.1,1.8h7.2c1.1,0,2-1,1.8-2.1l-13.2-71.2
	c-0.2-1-1-1.6-2-1.6h-1.6c-0.9,0-1.7,0.5-2,1.4l-22,54l-22.5-54.1c-0.3-0.8-1.1-1.2-1.9-1.2L182.1,39.5z"/>
<path d="M279.7,82.9c-1-3.4-4.8-3.2-8.2-3.2c-2.5,0-7.6,1.2-10,1.9c-0.8,0.2-1.5-0.3-1.7-1l-1.2-4.9c-0.2-0.8,0.2-1.7,1-2.1
	c0.7-0.3,1.7-0.7,3.1-0.9c3.1-0.7,11-3,19.2-0.5c8.2,2.5,7.7,15.1,7.7,15.1v25.2c0,1.1-0.9,1.9-1.9,1.9h-3.5c-0.4,0-0.8-0.3-1-0.7
	l-1.4-3.6c0,0,0.5-0.2-2.1,1.8c-2.6,2-6.9,3.8-12.2,3.5c-5-0.2-12.4-4-12.4-13.7c0-8.5,5.8-12.4,12-13.7c6.3-1.3,13.2,0.7,13.2,0.7
	S280.7,86.2,279.7,82.9z M271.9,94.3c-2.5,0-9.2,2.3-7.6,8.6c1.5,5.7,5.7,5.6,9.2,4.7c4.6-1.2,6.7-4.9,6.7-4.9V96
	C277.5,94.4,274.4,94.3,271.9,94.3z"/>
<path d="M302.6,40.4h29.8c10.3,0,22.2,8.6,22.2,23.5c0,14.7-15.6,20.6-15.6,20.6l14.6,26.8c0.8,1.5-0.3,3.3-2,3.3h-8.3
	c-0.6,0-1.2-0.3-1.5-0.9l-14.3-28.3h-16v26.9c0,1.2-1,2.2-2.2,2.2h-6.7c-1.1,0-2-0.9-2-2v-70C300.5,41.3,301.4,40.4,302.6,40.4z
	 M311.7,50.7v25.6h19.4c0,0,12.3-0.5,12.3-12.6c0-12.5-12.1-13.1-12.1-13.1L311.7,50.7z"/>
<path d="M394.7,40.5c7.1,0,35.3,6.9,35.3,37.6c0,25.8-24.4,36.3-35.1,36.3h-26.7c-0.9,0-1.6-0.7-1.6-1.6V42.3c0-1.1,0.9-1.9,2-1.9
	C373.9,40.4,388.9,40.5,394.7,40.5z M377.3,50.3v54c0,0,12.1,0,15.7,0s25.3-3.1,25.3-27.1s-22.4-26.9-25.5-26.9
	S377.3,50.3,377.3,50.3z"/>
<path d="M464.6,39.3h0.8c0.9,0,1.6,0.5,2,1.3l32.4,71.2c0.5,1.2-0.3,2.5-1.6,2.5h-7.8c-0.6,0-1.2-0.4-1.4-0.9l-6.8-15.2h-34.6
	l-6.2,14.4c-0.5,1.1-1.5,1.8-2.7,1.8h-7.1c-1.3,0-2.2-1.3-1.6-2.5l32.7-71.3C463,39.8,463.7,39.3,464.6,39.3z M464.6,60.3l-13,28.9
	h26.6l-13.1-28.9C465,60.1,464.7,60.1,464.6,60.3z"/>
<g>
	<path class="st0" d="M145.1,93.9c0-0.1,0-0.2,0-0.2c0-0.1,0-0.2,0-0.3c0-0.1,0-0.2,0-0.3c0-0.1,0-0.2,0-0.3c0-0.1,0-0.2,0-0.3
		c0-0.1,0-0.2,0-0.2c0-0.1,0-0.2,0-0.4c0-0.1,0-0.1,0-0.2c0-0.1,0-0.3,0-0.4c0-0.1,0-0.1,0-0.2c0-0.1,0-0.3,0-0.4c0,0,0-0.1,0-0.1
		c0-0.1,0-0.3,0-0.4c0,0,0-0.1,0-0.1c0-0.2,0-0.3,0-0.5c0,0,0-0.1,0-0.1c0-0.2,0-0.3-0.1-0.5c0,0,0,0,0-0.1c0-0.2,0-0.3-0.1-0.5
		c0,0,0,0,0-0.1c0-0.2,0-0.3-0.1-0.5c0,0,0,0,0,0c0-0.2-0.1-0.4-0.1-0.5c0,0,0,0,0,0c0-0.2-0.1-0.4-0.1-0.5c0,0,0,0,0,0
		c0-0.2-0.1-0.4-0.1-0.5c0,0,0,0,0,0c0-0.2-0.1-0.4-0.1-0.5c0,0,0,0,0,0l0,0c-0.6-3.1-1.5-6.2-2.8-9.1c-2.4-5.5-5.7-10.5-10-14.8
		c-4.3-4.3-9.3-7.6-14.8-10c-5.8-2.4-11.9-3.7-18.2-3.7S86,49.2,80.2,51.6c-1.4,0.6-2.8,1.3-4.2,2c1.6,1.2,3.1,2.4,4.6,3.8
		c0.6-0.3,1.2-0.5,1.7-0.8c5.1-2.1,10.5-3.2,16.1-3.2s11,1.1,16.1,3.2c4.9,2.1,9.3,5,13.1,8.8c3.8,3.8,6.8,8.2,8.8,13.1
		c1,2.3,1.7,4.6,2.3,7c0,0.2,0.1,0.4,0.1,0.5c0,0,0,0,0,0c0.3,1.3,0.5,2.6,0.6,3.9c0,0,0,0,0,0.1c0,0.2,0,0.3,0,0.5c0,0,0,0.1,0,0.1
		c0,0.1,0,0.3,0,0.4c0,0.1,0,0.1,0,0.2c0,0.1,0,0.3,0,0.4c0,0.1,0,0.1,0,0.2c0,0.1,0,0.2,0,0.4c0,0.1,0,0.1,0,0.2c0,0.1,0,0.2,0,0.4
		c0,0.1,0,0.1,0,0.2c0,0.1,0,0.2,0,0.4c0,0.1,0,0.1,0,0.2c0,0.1,0,0.3,0,0.4c0,0.1,0,0.1,0,0.2c0,0.2,0,0.4,0,0.5
		c0,5.5-1.1,10.9-3.2,16c-2.1,4.9-5.1,9.3-8.8,13.1c-3.8,3.8-8.2,6.7-13.1,8.8c-5.1,2.1-10.5,3.2-16.1,3.2s-11-1.1-16.1-3.2
		c-0.3-0.1-0.5-0.2-0.8-0.3c0,0-0.1,0-0.1,0c-0.2-0.1-0.5-0.2-0.7-0.3c0,0-0.1,0-0.1,0c-0.2-0.1-0.5-0.2-0.7-0.4c0,0,0,0-0.1,0
		c-0.3-0.1-0.5-0.3-0.8-0.4c-3.4-1.8-6.6-4.1-9.4-6.8v0c-0.2-0.2-0.3-0.3-0.5-0.5c-3.8-3.8-6.8-8.2-8.8-13.1
		c-2.2-5.1-3.2-10.4-3.2-16c0-0.2,0-0.4,0-0.5c0-0.1,0-0.1,0-0.2c0-0.1,0-0.3,0-0.4c0-0.1,0-0.1,0-0.2c0-0.1,0-0.2,0-0.4
		c0-0.1,0-0.1,0-0.2c0-0.1,0-0.2,0-0.4c0-0.1,0-0.1,0-0.2c0-0.1,0-0.2,0-0.4c0-0.1,0-0.1,0-0.2c0-0.1,0-0.3,0-0.4c0-0.1,0-0.1,0-0.2
		c0-0.1,0-0.3,0-0.4c0,0,0-0.1,0-0.1c0-0.2,0-0.3,0-0.5c0,0,0,0,0-0.1c0.1-1.3,0.3-2.6,0.6-3.9c0,0,0,0,0,0c0-0.2,0.1-0.4,0.1-0.5
		c0.5-2.4,1.3-4.8,2.3-7c2.1-4.9,5.1-9.3,8.8-13.1c0.6-0.6,1.1-1.1,1.7-1.6c-1.4-1.2-3-2.2-4.6-3.2c-0.3,0.3-0.7,0.6-1,1
		c-4.3,4.3-7.7,9.2-10,14.8c-1.3,3-2.2,6-2.8,9.1l0,0c0,0,0,0,0,0c0,0.2-0.1,0.4-0.1,0.5c0,0,0,0,0,0c0,0.2-0.1,0.4-0.1,0.5
		c0,0,0,0,0,0c0,0.2-0.1,0.4-0.1,0.5c0,0,0,0,0,0c0,0.2-0.1,0.4-0.1,0.5c0,0,0,0,0,0c0,0.2,0,0.3-0.1,0.5c0,0,0,0,0,0.1
		c0,0.2,0,0.3-0.1,0.5c0,0,0,0,0,0.1c0,0.2,0,0.3-0.1,0.5c0,0,0,0.1,0,0.1c0,0.2,0,0.3,0,0.5c0,0,0,0.1,0,0.1c0,0.1,0,0.3,0,0.4
		c0,0,0,0.1,0,0.1c0,0.1,0,0.3,0,0.4c0,0.1,0,0.1,0,0.2c0,0.1,0,0.3,0,0.4c0,0.1,0,0.1,0,0.2c0,0.1,0,0.2,0,0.4c0,0.1,0,0.2,0,0.2
		c0,0.1,0,0.2,0,0.3c0,0.1,0,0.2,0,0.3c0,0.1,0,0.2,0,0.3c0,0.1,0,0.2,0,0.3c0,0.1,0,0.2,0,0.2c0,0.2,0,0.4,0,0.6
		c0,6.3,1.2,12.4,3.7,18.1c0.1,0.2,0.1,0.3,0.2,0.5c0,0.1,0.1,0.1,0.1,0.2c0,0.1,0.1,0.2,0.1,0.3c0,0.1,0.1,0.1,0.1,0.2
		c0,0.1,0.1,0.2,0.1,0.3c0,0.1,0.1,0.1,0.1,0.2c0,0.1,0.1,0.2,0.1,0.3c0,0.1,0.1,0.2,0.1,0.2c0,0.1,0.1,0.2,0.1,0.3
		c0,0.1,0.1,0.2,0.1,0.2c0,0.1,0.1,0.2,0.1,0.3c0,0.1,0.1,0.2,0.1,0.2c0,0.1,0.1,0.2,0.1,0.2c0,0.1,0.1,0.2,0.1,0.2
		c0,0.1,0.1,0.2,0.1,0.2c0,0.1,0.1,0.2,0.1,0.3c0,0.1,0.1,0.2,0.1,0.2c0,0.1,0.1,0.2,0.1,0.3c0,0.1,0.1,0.1,0.1,0.2
		c0,0.1,0.1,0.2,0.1,0.3c0,0.1,0.1,0.1,0.1,0.2c0.1,0.1,0.1,0.2,0.2,0.3c0,0.1,0.1,0.1,0.1,0.2c0.1,0.1,0.1,0.2,0.2,0.3
		c0,0.1,0.1,0.1,0.1,0.2c0.1,0.1,0.1,0.2,0.2,0.3c0,0.1,0.1,0.1,0.1,0.2c0.1,0.1,0.1,0.2,0.2,0.3c0,0.1,0.1,0.1,0.1,0.2
		c0.1,0.1,0.1,0.2,0.2,0.3c0,0.1,0.1,0.1,0.1,0.2c0.1,0.1,0.1,0.2,0.2,0.3c0,0.1,0.1,0.1,0.1,0.2c0.1,0.1,0.1,0.2,0.2,0.3
		c0,0.1,0.1,0.1,0.1,0.2c0.1,0.1,0.1,0.2,0.2,0.3c0,0.1,0.1,0.1,0.1,0.2c0.1,0.1,0.1,0.2,0.2,0.3c0,0.1,0.1,0.1,0.1,0.2
		c0.1,0.1,0.1,0.2,0.2,0.3c0,0.1,0.1,0.1,0.1,0.2c0.1,0.1,0.1,0.2,0.2,0.3c0,0.1,0.1,0.1,0.1,0.2c0.1,0.1,0.1,0.2,0.2,0.3
		c0,0,0.1,0.1,0.1,0.1c0.1,0.1,0.2,0.2,0.2,0.3c0,0,0.1,0.1,0.1,0.1c0.1,0.1,0.2,0.2,0.2,0.3c0,0,0.1,0.1,0.1,0.1
		c0.1,0.1,0.2,0.2,0.3,0.3c0,0,0.1,0.1,0.1,0.1c0.1,0.1,0.2,0.2,0.3,0.3c0,0,0.1,0.1,0.1,0.1c0.1,0.1,0.2,0.2,0.3,0.3
		c0,0,0.1,0.1,0.1,0.1c0.1,0.1,0.2,0.2,0.3,0.3c0,0,0.1,0.1,0.1,0.1c0.1,0.1,0.2,0.2,0.3,0.3c0,0,0,0,0.1,0.1
		c0.1,0.1,0.2,0.2,0.3,0.3c0,0,0,0,0,0c0.1,0.1,0.2,0.2,0.4,0.4c0,0,0,0,0,0l0,0c0.1,0.1,0.2,0.2,0.4,0.4c3.1,3.1,6.6,5.7,10.4,7.8
		c0,0,0,0,0,0c0.2,0.1,0.5,0.3,0.7,0.4c0,0,0,0,0,0c0.2,0.1,0.5,0.2,0.7,0.4c0,0,0,0,0,0c0.2,0.1,0.4,0.2,0.6,0.3c0,0,0.1,0,0.1,0.1
		c0.2,0.1,0.5,0.2,0.7,0.3c0,0,0,0,0.1,0c0.2,0.1,0.4,0.2,0.6,0.3c0.1,0,0.1,0.1,0.2,0.1c0.2,0.1,0.4,0.2,0.7,0.3
		c5.8,2.4,11.9,3.7,18.2,3.7s12.4-1.2,18.2-3.7c5.6-2.3,10.6-5.7,14.8-10c4.3-4.3,7.7-9.2,10-14.8c2.4-5.7,3.7-11.8,3.7-18.1
		C145.1,94.3,145.1,94.1,145.1,93.9z"/>
	<path class="st1" d="M115.4,28.4c-2.4-5.5-5.7-10.5-10-14.8c-4.3-4.3-9.3-7.6-14.8-10C84.8,1.2,78.7,0,72.4,0
		C66.1,0,60,1.2,54.2,3.7c-5.6,2.3-10.6,5.7-14.8,10c-4.3,4.3-7.7,9.2-10,14.8c-2.4,5.7-3.7,11.8-3.7,18.1c0,0.7,0,1.5,0.1,2.2
		c0.5-0.3,1.1-0.5,1.7-0.7c1.2-0.5,2.5-1,3.7-1.4c0,0,0,0,0-0.1c0-5.5,1.1-10.9,3.2-16c2.1-4.9,5.1-9.3,8.8-13.1
		c3.8-3.8,8.2-6.7,13.1-8.8c5.1-2.1,10.5-3.2,16.1-3.2c5.6,0,11,1.1,16.1,3.2c4.9,2.1,9.3,5,13.1,8.8c3.8,3.8,6.8,8.2,8.8,13.1
		c2.2,5.1,3.2,10.4,3.2,16c0,0.3,0,0.7,0,1c1.4,0.4,2.7,0.9,4.1,1.5c0.4,0.2,0.9,0.4,1.3,0.6c0.1-1,0.1-2,0.1-3.1
		C119.1,40.2,117.9,34.1,115.4,28.4z"/>
	<path class="st1" d="M44.9,84.1L44.9,84.1c0.4-1.9,0.9-3.8,1.4-5.7c-1.1-0.9-2.1-1.8-3.1-2.8c-3.8-3.8-6.8-8.2-8.8-13.1
		c-0.6-1.5-1.2-3.1-1.6-4.6c-0.3,0.1-0.6,0.3-1,0.4c-1.4,0.6-2.7,1.2-4,2c0.5,1.5,1,3,1.6,4.4c2.4,5.5,5.7,10.5,10,14.8
		C41.1,81.1,43,82.7,44.9,84.1C44.9,84.1,44.9,84.1,44.9,84.1z"/>
	<path class="st1" d="M113.3,59.3c-0.5-0.2-1-0.4-1.5-0.6c-0.4,1.3-0.9,2.6-1.4,3.8c-2.1,4.9-5.1,9.3-8.8,13.1
		c-0.8,0.8-1.7,1.6-2.6,2.4c0.6,1.9,1,3.9,1.4,5.8c1.8-1.3,3.5-2.8,5.1-4.4c4.3-4.3,7.7-9.2,10-14.8c0.5-1.2,1-2.4,1.4-3.7
		C115.7,60.3,114.5,59.8,113.3,59.3z"/>
	<path class="st2" d="M64.5,130.5c-0.6,0.3-1.2,0.5-1.7,0.8c-5.1,2.1-10.5,3.2-16.1,3.2s-11-1.1-16.1-3.2c-4.9-2.1-9.3-5-13.1-8.8
		c-3.8-3.8-6.8-8.2-8.8-13.1c-2.2-5.1-3.2-10.4-3.2-16c0-5.5,1.1-10.9,3.2-16c2.1-4.9,5.1-9.3,8.8-13.1c3.8-3.8,8.2-6.7,13.1-8.8
		c5.1-2.1,10.5-3.2,16.1-3.2s11,1.1,16.1,3.2c1.1,0.5,2.2,1,3.2,1.5l0,0l1.6,1c1.9,1.1,3.6,2.3,5.3,3.7l2.4,2l-0.1,0.1
		c0.2,0.2,0.4,0.4,0.6,0.6c3.8,3.8,6.8,8.2,8.8,13.1c2.2,5.1,3.2,10.4,3.2,16c0,5.5-1.1,10.9-3.2,16c-2.1,4.9-5.1,9.3-8.8,13.1
		c-0.6,0.6-1.1,1.1-1.7,1.6c1.4,1.2,3,2.2,4.6,3.2c0.3-0.3,0.7-0.6,1-1c4.3-4.3,7.7-9.2,10-14.8c2.4-5.7,3.7-11.8,3.7-18.1
		c0-6.3-1.2-12.4-3.7-18.1c-2.4-5.5-5.7-10.5-10-14.8c-0.3-0.3-0.7-0.7-1.1-1l0,0c-1.2-1.1-2.4-2.2-3.7-3.1c0,0,0,0,0,0
		c-0.2-0.1-0.4-0.3-0.5-0.4c-0.1,0-0.1-0.1-0.2-0.1l0,0c-2.9-2.1-6-3.8-9.3-5.2c-5.8-2.4-11.9-3.7-18.2-3.7s-12.4,1.2-18.2,3.7
		c-5.6,2.3-10.6,5.7-14.8,10S6,69.8,3.7,75.3C1.2,81.1,0,87.2,0,93.4c0,6.3,1.2,12.4,3.7,18.1c2.4,5.5,5.7,10.5,10,14.8
		c4.3,4.3,9.3,7.6,14.8,10c5.8,2.4,11.9,3.7,18.2,3.7s12.4-1.2,18.2-3.7c1.4-0.6,2.8-1.3,4.2-2C67.5,133.1,65.9,131.9,64.5,130.5z"
		/>
</g>
</svg>
