<?xml version="1.0" encoding="UTF-8" standalone="no"?>
<!DOCTYPE svg PUBLIC "-//W3C//DTD SVG 1.1//EN" "http://www.w3.org/Graphics/SVG/1.1/DTD/svg11.dtd">
<svg width="100%" height="100%" viewBox="0 0 1692 796" version="1.1" xmlns="http://www.w3.org/2000/svg" xmlns:xlink="http://www.w3.org/1999/xlink" xml:space="preserve" xmlns:serif="http://www.serif.com/" style="fill-rule:evenodd;clip-rule:evenodd;stroke-linejoin:round;stroke-miterlimit:2;">
    <g transform="matrix(4.16667,0,0,4.16667,0,0)">
        <path d="M359.195,158.741C339.979,158.741 323.29,152.664 309.383,137.582C296.489,123.626 290.421,102.69 290.421,79.731C290.421,59.022 296.236,40.113 305.844,26.832C317.981,10.175 336.691,0.27 359.195,0.27C375.378,0.27 389.031,4.322 400.663,12.426L393.076,20.755C382.458,13.551 372.343,10.625 358.942,10.625C339.472,10.625 324.301,19.404 315.452,35.836C309.637,46.867 305.844,62.173 305.844,81.532C305.844,99.089 309.131,111.92 314.694,121.825C324.808,140.283 341.749,148.162 361.218,148.162C374.366,148.162 385.238,144.561 396.364,137.357L404.202,146.136C391.053,154.239 375.125,158.741 359.195,158.741Z" style="fill:rgb(0,104,146);fill-rule:nonzero;"/>
        <path d="M351.107,87.673C342.43,87.673 337.149,89.308 334.633,92.201C332.245,94.967 331.364,97.23 331.364,101.38C331.364,108.296 334.885,112.319 341.298,112.319C346.58,112.319 351.61,109.05 354.502,104.02L354.88,87.925C353.119,87.799 352.113,87.673 351.107,87.673ZM365.316,121.499C361.418,119.99 358.4,116.847 356.891,112.445C355.257,114.457 349.975,120.744 339.035,120.744C326.461,120.744 318.664,114.331 318.664,102.26C318.664,87.673 330.358,79.877 350.729,79.877C352.239,79.877 353.496,79.877 355.131,80.003L355.131,75.853C355.131,68.434 354.125,63.404 345.322,63.404C338.658,63.404 331.113,66.674 325.958,70.572L320.675,62.272C326.838,58.751 334.885,53.973 347.083,53.973C356.262,53.973 362.927,57.368 365.316,64.033C366.322,66.799 366.574,68.937 366.574,75.099C366.574,79.625 366.071,89.308 366.071,98.488C366.071,107.164 366.322,110.685 371.226,113.703L365.316,121.499Z" style="fill:rgb(0,104,146);fill-rule:nonzero;"/>
        <path d="M402.538,64.033L390.089,64.033L390.089,102.008C390.089,109.805 391.974,112.193 398.262,112.193C400.4,112.193 402.16,111.816 404.173,110.936L405.555,117.978C402.035,119.738 398.262,120.619 394.112,120.619C390.842,120.619 385.813,119.738 383.047,117.224C380.532,114.96 378.771,113.325 378.771,104.648L378.771,64.033L371.226,64.033L371.226,55.859L378.771,55.859C378.771,50.955 378.897,44.542 379.525,39.764L391.471,36.997C390.968,41.524 390.34,49.446 390.34,55.859L405.681,55.859L402.538,64.033Z" style="fill:rgb(0,104,146);fill-rule:nonzero;"/>
        <path d="M44.766,118.095L22.006,72.072C17.604,63.143 13.077,53.335 11.443,48.305L10.688,48.431C11.317,55.85 11.569,64.527 11.694,72.575L12.197,118.095L0,118.095L0,31.455L14.083,31.455L38.227,79.239C41.874,86.407 46.149,97.598 46.778,99.988L47.532,99.736C47.281,97.221 46.275,83.515 46.275,73.958L46.023,31.455L57.718,31.455L57.718,118.095L44.766,118.095Z" style="fill:rgb(35,31,32);fill-rule:nonzero;"/>
        <path d="M117.953,41.389L86.641,41.389L86.641,67.67L112.295,67.67L112.295,77.478L86.641,77.478L86.641,118.095L74.444,118.095L74.444,31.455L119.588,31.455L117.953,41.389Z" style="fill:rgb(35,31,32);fill-rule:nonzero;"/>
        <path d="M170.323,48.808C165.545,42.772 160.515,41.138 152.09,41.138L142.282,41.138L142.282,108.161L151.839,108.161C161.773,108.161 168.186,105.519 172.084,98.479C175.228,92.694 176.736,84.898 176.736,76.347C176.736,64.275 175.479,55.347 170.323,48.808ZM180.76,106.4C174.725,113.945 166.677,118.095 151.587,118.095L129.959,118.095L129.959,31.455L150.078,31.455C165.042,31.455 174.599,34.85 182.521,45.79C187.677,52.958 190.192,62.892 190.192,74.838C190.192,88.922 186.545,99.233 180.76,106.4Z" style="fill:rgb(35,31,32);fill-rule:nonzero;"/>
        <rect x="201.221" y="31.455" width="12.324" height="86.64" style="fill:rgb(35,31,32);fill-rule:nonzero;"/>
        <path d="M262.181,117.969C261.678,117.969 225.149,118.095 225.149,118.095L225.149,104.759L249.329,53.964L262.245,53.964C262.245,53.964 237.833,105.339 237.329,106.22C237.707,106.22 262.181,105.834 262.181,105.834L263.313,78.862L274.379,77.227L274.379,105.834C274.756,105.834 280.478,105.708 280.478,105.708L280.478,118.095C280.478,118.095 274.756,117.969 274.379,117.969L274.379,140.353L262.055,142.364C262.055,142.364 262.181,118.598 262.181,117.969Z" style="fill:rgb(143,199,62);fill-rule:nonzero;"/>
        <path d="M9.625,185.384L5.595,176.934C4.632,174.932 3.645,172.669 3.307,171.603L3.229,171.682C3.359,173.189 3.384,174.905 3.41,176.674L3.515,185.384L0.576,185.384L0.576,167.391L3.957,167.391L8.325,176.18C9.157,177.844 9.937,179.976 10.171,180.808L10.249,180.729C10.171,179.819 9.989,177.245 9.989,175.607L9.937,167.391L12.771,167.391L12.771,185.384L9.625,185.384Z" style="fill:rgb(35,31,32);fill-rule:nonzero;"/>
        <path d="M26.629,169.835L20.466,169.835L20.466,174.724L25.485,174.724L25.485,177.142L20.466,177.142L20.466,185.384L17.476,185.384L17.476,167.391L26.993,167.391L26.629,169.835Z" style="fill:rgb(35,31,32);fill-rule:nonzero;"/>
        <path d="M37.523,171.317C36.691,170.173 35.755,169.757 34.143,169.757L32.244,169.757L32.244,182.939L34.22,182.939C37.393,182.939 38.667,180.834 38.667,176.751C38.667,174.437 38.459,172.591 37.523,171.317ZM40.097,182.861C38.589,184.786 37.029,185.384 33.675,185.384L29.228,185.384L29.228,167.391L32.972,167.391C36.353,167.391 38.355,168.015 40.045,169.939C41.371,171.474 41.995,173.632 41.995,176.439C41.995,179.17 41.319,181.302 40.097,182.861Z" style="fill:rgb(35,31,32);fill-rule:nonzero;"/>
        <rect x="45.92" y="167.391" width="3.068" height="17.993" style="fill:rgb(35,31,32);fill-rule:nonzero;"/>
        <path d="M65.836,168.847C65.186,168.535 64.796,168.379 64.25,168.379C63.262,168.379 62.638,169.055 62.638,170.225L62.638,172.228L66.07,172.228L65.342,174.203L62.664,174.203L62.664,185.384L59.83,185.384L59.83,174.203L58.608,174.203L58.608,172.228L59.882,172.228C59.856,172.071 59.804,171.369 59.804,170.277C59.804,167.547 61.468,166.272 63.808,166.272C64.926,166.272 65.862,166.507 66.772,167.027L65.836,168.847Z" style="fill:rgb(35,31,32);fill-rule:nonzero;"/>
        <path d="M73.011,174.073C71.192,174.073 70.411,175.451 70.411,178.649C70.411,182.472 71.373,183.59 73.09,183.59C74.779,183.59 75.716,182.212 75.716,178.909C75.716,175.191 74.675,174.073 73.011,174.073ZM73.037,185.722C69.475,185.722 67.239,183.044 67.239,178.831C67.239,174.619 69.501,171.915 72.986,171.915C76.73,171.915 78.862,174.697 78.862,178.857C78.862,183.096 76.6,185.722 73.037,185.722Z" style="fill:rgb(35,31,32);fill-rule:nonzero;"/>
        <path d="M88.794,174.724C88.508,174.619 88.3,174.541 87.987,174.541C86.792,174.541 85.778,175.426 85.518,176.491L85.518,185.384L82.657,185.384L82.657,176.102C82.657,174.437 82.476,173.371 82.19,172.565L84.816,171.89C85.128,172.487 85.31,173.241 85.31,173.97C86.35,172.539 87.39,171.863 88.664,171.863C89.08,171.863 89.34,171.915 89.678,172.071L88.794,174.724Z" style="fill:rgb(35,31,32);fill-rule:nonzero;"/>
        <path d="M105.148,185.67C102.756,185.67 100.858,184.76 99.453,183.069C98.101,181.432 97.399,179.247 97.399,176.647C97.399,174.489 97.789,172.695 98.595,171.187C99.947,168.613 102.418,167.053 105.226,167.053C106.968,167.053 108.632,167.573 109.698,168.457L108.32,170.433C107.358,169.731 106.37,169.419 105.252,169.419C103.717,169.419 102.444,170.199 101.664,171.577C101.04,172.669 100.728,174.178 100.728,176.31C100.728,178.519 100.962,179.768 101.429,180.781C102.21,182.498 103.692,183.33 105.434,183.33C106.708,183.33 107.644,182.991 108.658,182.186L110.062,184.084C108.658,185.149 107.072,185.67 105.148,185.67Z" style="fill:rgb(35,31,32);fill-rule:nonzero;"/>
        <path d="M118.85,179.17C115.99,179.17 115.132,180.002 115.132,181.666C115.132,182.914 115.808,183.693 116.952,183.693C117.862,183.693 118.746,183.147 119.318,182.315L119.37,179.195C119.318,179.195 119.032,179.17 118.85,179.17ZM121.814,185.93C121.008,185.618 120.332,184.994 120.02,184.162C118.954,185.357 117.81,185.773 116.406,185.773C113.389,185.773 112.038,184.109 112.038,181.821C112.038,178.779 114.326,177.245 118.538,177.245L119.422,177.245L119.422,176.544C119.422,175.035 119.162,174.229 117.602,174.229C115.912,174.229 114.091,175.426 113.675,175.737L112.402,173.684C114.378,172.436 116.016,171.89 117.992,171.89C120.046,171.89 121.424,172.644 121.996,174.073C122.23,174.645 122.23,175.348 122.204,177.298L122.152,181.067C122.126,182.836 122.282,183.407 123.296,184.109L121.814,185.93Z" style="fill:rgb(35,31,32);fill-rule:nonzero;"/>
        <path d="M130.315,185.722C127.768,185.722 126.883,184.214 126.883,182.342L126.883,174.203L125.427,174.203L125.427,172.228L126.883,172.228C126.883,171.109 126.883,169.965 127.013,168.977L129.951,168.275C129.822,169.341 129.716,170.927 129.716,172.228L132.864,172.228L132.11,174.203L129.692,174.203L129.692,181.588C129.692,183.226 130.056,183.693 131.304,183.693C131.694,183.693 132.032,183.616 132.526,183.434L132.89,185.149C132.032,185.54 131.2,185.722 130.315,185.722Z" style="fill:rgb(35,31,32);fill-rule:nonzero;"/>
        <path d="M141.6,179.17C138.74,179.17 137.882,180.002 137.882,181.666C137.882,182.914 138.558,183.693 139.702,183.693C140.612,183.693 141.496,183.147 142.068,182.315L142.12,179.195C142.068,179.195 141.782,179.17 141.6,179.17ZM144.564,185.93C143.758,185.618 143.082,184.994 142.77,184.162C141.704,185.357 140.56,185.773 139.156,185.773C136.139,185.773 134.788,184.109 134.788,181.821C134.788,178.779 137.076,177.245 141.288,177.245L142.172,177.245L142.172,176.544C142.172,175.035 141.912,174.229 140.352,174.229C138.662,174.229 136.841,175.426 136.425,175.737L135.152,173.684C137.128,172.436 138.766,171.89 140.742,171.89C142.796,171.89 144.174,172.644 144.746,174.073C144.98,174.645 144.98,175.348 144.954,177.298L144.902,181.067C144.876,182.836 145.032,183.407 146.046,184.109L144.564,185.93Z" style="fill:rgb(35,31,32);fill-rule:nonzero;"/>
        <path d="M152.363,185.67C149.477,185.67 149.477,183.069 149.477,181.952L149.477,170.745C149.477,168.951 149.399,167.989 149.217,166.896L152.155,166.247C152.363,167.053 152.389,168.144 152.389,169.861L152.389,181.016C152.389,182.784 152.467,183.069 152.675,183.382C152.832,183.616 153.274,183.746 153.611,183.59L154.08,185.357C153.559,185.565 153.013,185.67 152.363,185.67Z" style="fill:rgb(35,31,32);fill-rule:nonzero;"/>
        <path d="M162.79,185.67C161.698,188.842 160.761,190.428 157.668,191L156.732,189.154C158.526,188.66 159.54,187.906 160.294,185.384L159.383,185.384C159.02,183.901 158.526,182.472 158.135,181.302L155.145,172.436L158.057,171.941L160.476,179.949C160.71,180.729 161.152,182.706 161.204,182.914C161.23,182.81 161.698,180.937 162.192,179.352L164.376,172.228L167.444,172.228L162.79,185.67Z" style="fill:rgb(35,31,32);fill-rule:nonzero;"/>
        <path d="M173.813,185.748C172.201,185.748 170.459,185.228 168.769,184.292L169.783,182.237C170.953,182.914 172.565,183.616 174.048,183.616C175.296,183.616 176.179,182.861 176.179,181.769C176.179,180.756 175.529,180.235 174.048,179.924L172.462,179.586C170.485,179.17 169.315,177.817 169.315,175.972C169.315,173.501 171.291,171.785 174.203,171.785C175.998,171.785 177.427,172.331 178.546,172.93L177.61,174.905C176.387,174.255 175.425,173.943 174.385,173.943C173.163,173.943 172.383,174.619 172.383,175.634C172.383,176.439 172.825,176.855 174.152,177.193L175.79,177.609C178.442,178.285 179.144,179.741 179.144,181.275C179.144,183.928 176.986,185.748 173.813,185.748Z" style="fill:rgb(35,31,32);fill-rule:nonzero;"/>
        <path d="M182.549,185.384L182.549,172.436L185.435,171.915L185.435,185.384L182.549,185.384ZM183.979,170.277C182.939,170.277 182.133,169.419 182.133,168.379C182.133,167.312 182.965,166.455 184.031,166.455C185.045,166.455 185.903,167.287 185.903,168.379C185.903,169.419 185.045,170.277 183.979,170.277Z" style="fill:rgb(35,31,32);fill-rule:nonzero;"/>
        <path d="M193.756,185.748C192.143,185.748 190.401,185.228 188.711,184.292L189.725,182.237C190.895,182.914 192.507,183.616 193.989,183.616C195.237,183.616 196.121,182.861 196.121,181.769C196.121,180.756 195.471,180.235 193.989,179.924L192.403,179.586C190.427,179.17 189.257,177.817 189.257,175.972C189.257,173.501 191.233,171.785 194.145,171.785C195.939,171.785 197.369,172.331 198.487,172.93L197.551,174.905C196.329,174.255 195.367,173.943 194.327,173.943C193.105,173.943 192.325,174.619 192.325,175.634C192.325,176.439 192.767,176.855 194.093,177.193L195.731,177.609C198.383,178.285 199.086,179.741 199.086,181.275C199.086,183.928 196.927,185.748 193.756,185.748Z" style="fill:rgb(35,31,32);fill-rule:nonzero;"/>
        <rect x="201.971" y="176.985" width="5.695" height="2.653" style="fill:rgb(35,31,32);fill-rule:nonzero;"/>
        <path d="M216.168,169.809L214.529,169.809L214.529,175.503L216.063,175.503C217.623,175.503 218.455,175.296 219.002,174.749C219.496,174.255 219.807,173.501 219.807,172.565C219.807,170.745 218.82,169.809 216.168,169.809ZM220.328,185.384L218.767,182.602C217.519,180.392 216.687,179.144 215.699,178.155C215.361,177.817 215.101,177.636 214.529,177.609L214.529,185.384L211.591,185.384L211.591,167.391L217.078,167.391C221.107,167.391 222.927,169.731 222.927,172.539C222.927,175.113 221.263,177.479 218.455,177.479C219.105,177.817 220.301,179.56 221.238,181.067L223.889,185.384L220.328,185.384Z" style="fill:rgb(35,31,32);fill-rule:nonzero;"/>
        <path d="M231.663,174.073C230.05,174.073 229.167,175.348 229.167,177.479L234.029,177.479C234.029,175.348 233.093,174.073 231.663,174.073ZM229.14,179.586L229.14,179.794C229.14,181.613 229.817,183.538 232.39,183.538C233.613,183.538 234.679,183.096 235.668,182.237L236.785,183.979C235.407,185.149 233.821,185.722 232.052,185.722C228.335,185.722 225.995,183.044 225.995,178.831C225.995,176.518 226.489,174.983 227.632,173.684C228.699,172.461 229.999,171.915 231.663,171.915C232.963,171.915 234.159,172.253 235.277,173.268C236.422,174.308 236.993,175.919 236.993,178.987L236.993,179.586L229.14,179.586Z" style="fill:rgb(35,31,32);fill-rule:nonzero;"/>
        <path d="M243.545,185.67C240.658,185.67 240.658,183.069 240.658,181.952L240.658,170.745C240.658,168.951 240.581,167.989 240.398,166.896L243.337,166.247C243.545,167.053 243.57,168.144 243.57,169.861L243.57,181.016C243.57,182.784 243.648,183.069 243.857,183.382C244.012,183.616 244.455,183.746 244.793,183.59L245.26,185.357C244.741,185.565 244.195,185.67 243.545,185.67Z" style="fill:rgb(35,31,32);fill-rule:nonzero;"/>
        <path d="M254.075,179.17C251.215,179.17 250.357,180.002 250.357,181.666C250.357,182.914 251.033,183.693 252.177,183.693C253.087,183.693 253.97,183.147 254.543,182.315L254.595,179.195C254.543,179.195 254.257,179.17 254.075,179.17ZM257.039,185.93C256.233,185.618 255.556,184.994 255.245,184.162C254.179,185.357 253.035,185.773 251.631,185.773C248.615,185.773 247.262,184.109 247.262,181.821C247.262,178.779 249.55,177.245 253.763,177.245L254.647,177.245L254.647,176.544C254.647,175.035 254.386,174.229 252.827,174.229C251.136,174.229 249.316,175.426 248.9,175.737L247.627,173.684C249.603,172.436 251.241,171.89 253.216,171.89C255.271,171.89 256.648,172.644 257.22,174.073C257.454,174.645 257.454,175.348 257.428,177.298L257.377,181.067C257.351,182.836 257.506,183.407 258.521,184.109L257.039,185.93Z" style="fill:rgb(35,31,32);fill-rule:nonzero;"/>
        <path d="M265.541,185.722C262.993,185.722 262.109,184.214 262.109,182.342L262.109,174.203L260.652,174.203L260.652,172.228L262.109,172.228C262.109,171.109 262.109,169.965 262.239,168.977L265.177,168.275C265.047,169.341 264.943,170.927 264.943,172.228L268.09,172.228L267.335,174.203L264.917,174.203L264.917,181.588C264.917,183.226 265.281,183.693 266.529,183.693C266.919,183.693 267.257,183.616 267.751,183.434L268.115,185.149C267.257,185.54 266.425,185.722 265.541,185.722Z" style="fill:rgb(35,31,32);fill-rule:nonzero;"/>
        <path d="M275.863,174.073C274.251,174.073 273.367,175.348 273.367,177.479L278.228,177.479C278.228,175.348 277.293,174.073 275.863,174.073ZM273.34,179.586L273.34,179.794C273.34,181.613 274.016,183.538 276.59,183.538C277.812,183.538 278.879,183.096 279.867,182.237L280.985,183.979C279.607,185.149 278.021,185.722 276.253,185.722C272.535,185.722 270.195,183.044 270.195,178.831C270.195,176.518 270.688,174.983 271.833,173.684C272.898,172.461 274.199,171.915 275.863,171.915C277.163,171.915 278.359,172.253 279.476,173.268C280.621,174.308 281.193,175.919 281.193,178.987L281.193,179.586L273.34,179.586Z" style="fill:rgb(35,31,32);fill-rule:nonzero;"/>
        <path d="M292.295,175.348C291.645,174.645 290.865,174.281 289.903,174.281C288.083,174.281 287.251,175.737 287.251,178.909C287.251,181.821 287.823,183.277 289.981,183.277C291.047,183.277 291.905,182.68 292.295,182.029L292.295,175.348ZM292.92,185.384C292.789,185.098 292.763,184.916 292.685,184.37C291.8,185.254 290.761,185.67 289.461,185.67C286.107,185.67 284.079,183.044 284.079,178.936C284.079,174.802 286.367,171.993 289.539,171.993C290.657,171.993 291.567,172.357 292.373,173.189C292.347,172.981 292.295,172.045 292.295,171.031L292.295,166.221L295.129,166.663L295.129,180.808C295.129,183.407 295.285,184.733 295.545,185.384L292.92,185.384Z" style="fill:rgb(35,31,32);fill-rule:nonzero;"/>
        <path d="M310.182,185.722C308.129,185.722 306.048,185.176 304.28,184.109L305.424,181.821C307.037,182.758 308.466,183.304 310.287,183.304C312.497,183.304 313.822,182.237 313.822,180.443C313.822,179.117 312.99,178.285 311.144,177.766L309.22,177.22C307.582,176.751 306.412,176.075 305.736,175.061C305.242,174.333 304.982,173.476 304.982,172.436C304.982,169.263 307.478,167.104 311.092,167.104C313.146,167.104 315.201,167.703 316.787,168.821L315.435,170.927C313.771,169.939 312.627,169.549 311.197,169.549C309.428,169.549 308.258,170.511 308.258,171.993C308.258,173.111 308.882,173.684 310.65,174.203L312.783,174.827C315.382,175.581 317.203,177.245 317.203,179.949C317.203,182.939 314.785,185.722 310.182,185.722Z" style="fill:rgb(35,31,32);fill-rule:nonzero;"/>
        <path d="M325.808,185.722C322.22,185.722 320.218,183.2 320.218,178.962C320.218,174.178 323.078,171.89 326.016,171.89C327.446,171.89 328.486,172.228 329.656,173.319L328.226,175.218C327.446,174.516 326.77,174.203 326.016,174.203C325.106,174.203 324.352,174.671 323.936,175.529C323.547,176.335 323.39,177.558 323.39,179.195C323.39,180.989 323.675,182.134 324.274,182.784C324.69,183.252 325.314,183.538 326.016,183.538C326.925,183.538 327.81,183.096 328.668,182.237L330.02,183.979C328.824,185.176 327.576,185.722 325.808,185.722Z" style="fill:rgb(35,31,32);fill-rule:nonzero;"/>
        <path d="M333.166,185.384L333.166,172.436L336.052,171.915L336.052,185.384L333.166,185.384ZM334.595,170.277C333.556,170.277 332.75,169.419 332.75,168.379C332.75,167.312 333.582,166.455 334.648,166.455C335.662,166.455 336.52,167.287 336.52,168.379C336.52,169.419 335.662,170.277 334.595,170.277Z" style="fill:rgb(35,31,32);fill-rule:nonzero;"/>
        <path d="M345.646,174.073C344.034,174.073 343.15,175.348 343.15,177.479L348.011,177.479C348.011,175.348 347.076,174.073 345.646,174.073ZM343.124,179.586L343.124,179.794C343.124,181.613 343.799,183.538 346.374,183.538C347.595,183.538 348.662,183.096 349.65,182.237L350.768,183.979C349.39,185.149 347.804,185.722 346.036,185.722C342.318,185.722 339.978,183.044 339.978,178.831C339.978,176.518 340.471,174.983 341.616,173.684C342.681,172.461 343.982,171.915 345.646,171.915C346.946,171.915 348.142,172.253 349.259,173.268C350.404,174.308 350.976,175.919 350.976,178.987L350.976,179.586L343.124,179.586Z" style="fill:rgb(35,31,32);fill-rule:nonzero;"/>
        <path d="M361.843,185.384L361.843,176.647C361.843,174.853 361.427,174.359 360.336,174.359C359.504,174.359 358.307,174.983 357.449,175.842L357.449,185.384L354.641,185.384L354.641,175.712C354.641,174.333 354.511,173.527 354.147,172.591L356.748,171.863C357.059,172.461 357.215,173.033 357.215,173.735C358.62,172.539 359.841,171.915 361.246,171.915C363.274,171.915 364.677,173.138 364.677,175.556L364.677,185.384L361.843,185.384Z" style="fill:rgb(35,31,32);fill-rule:nonzero;"/>
        <path d="M374.194,185.722C370.605,185.722 368.603,183.2 368.603,178.962C368.603,174.178 371.464,171.89 374.402,171.89C375.832,171.89 376.872,172.228 378.042,173.319L376.612,175.218C375.832,174.516 375.156,174.203 374.402,174.203C373.492,174.203 372.738,174.671 372.322,175.529C371.931,176.335 371.776,177.558 371.776,179.195C371.776,180.989 372.062,182.134 372.66,182.784C373.076,183.252 373.7,183.538 374.402,183.538C375.312,183.538 376.196,183.096 377.054,182.237L378.406,183.979C377.21,185.176 375.962,185.722 374.194,185.722Z" style="fill:rgb(35,31,32);fill-rule:nonzero;"/>
        <path d="M386.31,174.073C384.698,174.073 383.814,175.348 383.814,177.479L388.675,177.479C388.675,175.348 387.74,174.073 386.31,174.073ZM383.788,179.586L383.788,179.794C383.788,181.613 384.464,183.538 387.038,183.538C388.259,183.538 389.326,183.096 390.314,182.237L391.432,183.979C390.054,185.149 388.468,185.722 386.7,185.722C382.982,185.722 380.641,183.044 380.641,178.831C380.641,176.518 381.135,174.983 382.28,173.684C383.345,172.461 384.646,171.915 386.31,171.915C387.61,171.915 388.806,172.253 389.923,173.268C391.068,174.308 391.64,175.919 391.64,178.987L391.64,179.586L383.788,179.586Z" style="fill:rgb(35,31,32);fill-rule:nonzero;"/>
        <path d="M399.049,185.748C397.437,185.748 395.696,185.228 394.006,184.292L395.019,182.237C396.189,182.914 397.801,183.616 399.284,183.616C400.532,183.616 401.416,182.861 401.416,181.769C401.416,180.756 400.765,180.235 399.284,179.924L397.698,179.586C395.721,179.17 394.551,177.817 394.551,175.972C394.551,173.501 396.528,171.785 399.44,171.785C401.234,171.785 402.664,172.331 403.782,172.93L402.845,174.905C401.624,174.255 400.662,173.943 399.622,173.943C398.4,173.943 397.62,174.619 397.62,175.634C397.62,176.439 398.062,176.855 399.387,177.193L401.026,177.609C403.677,178.285 404.38,179.741 404.38,181.275C404.38,183.928 402.222,185.748 399.049,185.748Z" style="fill:rgb(35,31,32);fill-rule:nonzero;"/>
    </g>
</svg>
