<svg width="160" height="178" xmlns="http://www.w3.org/2000/svg" xmlns:xlink="http://www.w3.org/1999/xlink" xml:space="preserve" overflow="hidden"><g transform="translate(-556 -271)"><path d="M53.4 28.6778 75.1556 15.7183" stroke="#9ED700" stroke-width="2.27444" transform="matrix(1.00745 0 0 1 580.251 271)"/><path d="M74.8101 65.7611 75.1556 91.0817" stroke="#00ACD9" stroke-width="2.27444" transform="matrix(1.00745 0 0 1 580.251 271)"/><path d="M31.9899 65.7611 9.88889 53.4" stroke="#7A2DD0" stroke-width="2.27444" transform="matrix(1.00745 0 0 1 580.251 271)"/><path d="M96.9111 53.4 75.1556 91.0817" stroke="#00ACD9" stroke-width="2.27444" transform="matrix(1.00745 0 0 1 580.251 271)"/><path d="M75.1556 91.0817 31.6444 91.0817" stroke="#E8E8E8" stroke-width="3.95556" fill="none" transform="matrix(1.00745 0 0 1 580.251 271)"/><path d="M31.6444 91.0817 9.88889 53.4" stroke="#7A2DD0" stroke-width="2.27444" transform="matrix(1.00745 0 0 1 580.251 271)"/><path d="M9.88889 53.4 31.6444 15.7183" stroke="#E8E8E8" stroke-width="3.95556" transform="matrix(1.00745 0 0 1 580.251 271)"/><path d="M31.6444 15.7183 75.1556 15.7183" stroke="#9ED700" stroke-width="2.27444" fill="none" transform="matrix(1.00745 0 0 1 580.251 271)"/><path d="M75.1556 15.7183 96.9111 53.4" stroke="#E8E8E8" stroke-width="3.95556" transform="matrix(1.00745 0 0 1 580.251 271)"/><path d="M103.833 53.4C103.833 57.223 100.734 60.3222 96.9111 60.3222 93.0881 60.3222 89.9889 57.223 89.9889 53.4 89.9889 49.577 93.0881 46.4778 96.9111 46.4778 100.734 46.4778 103.833 49.577 103.833 53.4Z" fill="#00ACD9" transform="matrix(1.00745 0 0 1 580.251 271)"/><path d="M82.0778 91.0817C82.0778 94.9048 78.9786 98.0039 75.1556 98.0039 71.3325 98.0039 68.2333 94.9048 68.2333 91.0817 68.2333 87.2587 71.3325 84.1595 75.1556 84.1595 78.9786 84.1595 82.0778 87.2587 82.0778 91.0817Z" fill="#00ACD9" transform="matrix(1.00745 0 0 1 580.251 271)"/><path d="M38.5667 91.0817C38.5667 94.9048 35.4675 98.0039 31.6444 98.0039 27.8214 98.0039 24.7222 94.9048 24.7222 91.0817 24.7222 87.2587 27.8214 84.1595 31.6444 84.1595 35.4675 84.1595 38.5667 87.2587 38.5667 91.0817Z" fill="#7A2DD0" transform="matrix(1.00745 0 0 1 580.251 271)"/><path d="M16.8111 53.4C16.8111 57.223 13.7119 60.3222 9.88889 60.3222 6.06585 60.3222 2.96667 57.223 2.96667 53.4 2.96667 49.577 6.06585 46.4778 9.88889 46.4778 13.7119 46.4778 16.8111 49.577 16.8111 53.4Z" fill="#7A2DD0" transform="matrix(1.00745 0 0 1 580.251 271)"/><path d="M38.5667 15.7183C38.5667 19.5413 35.4675 22.6405 31.6444 22.6405 27.8214 22.6405 24.7222 19.5413 24.7222 15.7183 24.7222 11.8952 27.8214 8.79605 31.6444 8.79605 35.4675 8.79605 38.5667 11.8952 38.5667 15.7183Z" fill="#9ED700" transform="matrix(1.00745 0 0 1 580.251 271)"/><path d="M82.0778 15.7183C82.0778 19.5413 78.9786 22.6405 75.1556 22.6405 71.3325 22.6405 68.2333 19.5413 68.2333 15.7183 68.2333 11.8952 71.3325 8.79605 75.1556 8.79605 78.9786 8.79605 82.0778 11.8952 82.0778 15.7183Z" fill="#9ED700" transform="matrix(1.00745 0 0 1 580.251 271)"/><path d="M53.4 78.1222 31.9899 65.7611" stroke="#FF414D" stroke-width="1.97778" transform="matrix(1.00745 0 0 1 580.251 271)"/><path d="M31.9899 65.7611 31.9899 41.0389" stroke="#FF414D" stroke-width="1.97778" fill="none" transform="matrix(1.00745 0 0 1 580.251 271)"/><path d="M31.9899 41.0389 53.4 28.6778" stroke="#FF414D" stroke-width="1.97778" transform="matrix(1.00745 0 0 1 580.251 271)"/><path d="M53.4 28.6778 74.8101 41.0389" stroke="#FF414D" stroke-width="1.97778" transform="matrix(1.00745 0 0 1 580.251 271)"/><path d="M74.8101 41.0389 74.8101 65.7611" stroke="#FF414D" stroke-width="1.97778" fill="none" transform="matrix(1.00745 0 0 1 580.251 271)"/><path d="M74.8101 65.7611 53.4 78.1222" stroke="#FF414D" stroke-width="1.97778" transform="matrix(1.00745 0 0 1 580.251 271)"/><path d="M58.3444 78.1222C58.3444 80.853 56.1307 83.0667 53.4 83.0667 50.6693 83.0667 48.4556 80.853 48.4556 78.1222 48.4556 75.3915 50.6693 73.1778 53.4 73.1778 56.1307 73.1778 58.3444 75.3915 58.3444 78.1222Z" fill="#FF414D" transform="matrix(1.00745 0 0 1 580.251 271)"/><path d="M36.9344 65.7611C36.9344 68.4918 34.7207 70.7056 31.9899 70.7056 29.2592 70.7056 27.0455 68.4918 27.0455 65.7611 27.0455 63.0304 29.2592 60.8167 31.9899 60.8167 34.7207 60.8167 36.9344 63.0304 36.9344 65.7611Z" fill="#FF414D" transform="matrix(1.00745 0 0 1 580.251 271)"/><path d="M36.9344 41.0389C36.9344 43.7696 34.7207 45.9833 31.9899 45.9833 29.2592 45.9833 27.0455 43.7696 27.0455 41.0389 27.0455 38.3081 29.2592 36.0944 31.9899 36.0944 34.7207 36.0944 36.9344 38.3081 36.9344 41.0389Z" fill="#FF414D" transform="matrix(1.00745 0 0 1 580.251 271)"/><path d="M58.3444 28.6778C58.3444 31.4085 56.1307 33.6222 53.4 33.6222 50.6693 33.6222 48.4556 31.4085 48.4556 28.6778 48.4556 25.947 50.6693 23.7333 53.4 23.7333 56.1307 23.7333 58.3444 25.947 58.3444 28.6778Z" fill="#FF414D" transform="matrix(1.00745 0 0 1 580.251 271)"/><path d="M79.7545 41.0389C79.7545 43.7696 77.5408 45.9833 74.8101 45.9833 72.0793 45.9833 69.8656 43.7696 69.8656 41.0389 69.8656 38.3081 72.0793 36.0944 74.8101 36.0944 77.5408 36.0944 79.7545 38.3081 79.7545 41.0389Z" fill="#FF414D" transform="matrix(1.00745 0 0 1 580.251 271)"/><path d="M79.7545 65.7611C79.7545 68.4918 77.5408 70.7056 74.8101 70.7056 72.0793 70.7056 69.8656 68.4918 69.8656 65.7611 69.8656 63.0304 72.0793 60.8167 74.8101 60.8167 77.5408 60.8167 79.7545 63.0304 79.7545 65.7611Z" fill="#FF414D" transform="matrix(1.00745 0 0 1 580.251 271)"/><text fill="#FF414D" font-family="Raleway,Raleway_MSFontService,sans-serif" font-weight="400" font-size="8" transform="matrix(1.9925 0 0 1.97778 594.696 394)">OPTIMADE</text><text fill="#00ACD9" font-family="Raleway,Raleway_MSFontService,sans-serif" font-weight="400" font-size="6" transform="matrix(1.9925 0 0 1.97778 557.835 411)">Open Databases Integration</text><text fill="#00ACD9" font-family="Raleway,Raleway_MSFontService,sans-serif" font-weight="400" font-size="6" transform="matrix(1.9925 0 0 1.97778 579.753 425)">for Materials Design</text></g></svg>