<svg width="262" height="263" xmlns="http://www.w3.org/2000/svg" xmlns:xlink="http://www.w3.org/1999/xlink" xml:space="preserve" overflow="hidden"><defs><clipPath id="clip0"><rect x="2069" y="1106" width="262" height="263"/></clipPath><clipPath id="clip1"><rect x="2094" y="1146" width="212" height="183"/></clipPath><clipPath id="clip2"><rect x="2094" y="1146" width="212" height="183"/></clipPath><clipPath id="clip3"><rect x="2094" y="1146" width="212" height="183"/></clipPath><clipPath id="clip4"><rect x="2094" y="1146" width="212" height="183"/></clipPath></defs><g clip-path="url(#clip0)" transform="translate(-2069 -1106)"><rect x="2069" y="1106" width="262" height="263" fill="#EAEAEA"/><g clip-path="url(#clip1)"><g clip-path="url(#clip2)"><g clip-path="url(#clip3)"><g clip-path="url(#clip4)"><path d="M177.028 70.6804 147.251 19.3062 65.7721 19.3062 41.5573 61.1909" stroke="#C03425" stroke-width="9.8167" stroke-miterlimit="10" fill="none" transform="matrix(1.00579 0 0 1 2094 1146.7)"/><path d="M41.8847 118.782 65.7721 160.34 147.251 160.34 175.719 111.256" stroke="#C03425" stroke-width="9.8167" stroke-miterlimit="10" fill="none" transform="matrix(1.00579 0 0 1 2094 1146.7)"/><path d="M295.156 56.6097C300.391 61.1909 303.009 67.7354 303.009 75.9159 303.009 84.7508 300.391 91.6228 295.156 96.5311 289.92 101.439 282.394 103.73 272.904 103.73L257.852 103.73 257.852 125.327 240.837 125.327 240.837 49.7381 272.904 49.7381C282.394 49.7381 289.92 52.0285 295.156 56.6097ZM283.048 86.0599C285.666 83.7692 286.975 80.4971 286.975 76.243 286.975 71.9892 285.666 69.0442 283.048 66.7538 280.431 64.7904 276.831 63.4813 271.923 63.4813L257.852 63.4813 257.852 89.0049 271.923 89.0049C276.831 89.332 280.431 88.3504 283.048 86.0599Z" fill="#C03425" transform="matrix(1.00579 0 0 1 2094 1146.7)"/><path d="M360.274 125.327 348.167 103.73 346.857 103.73 331.151 103.73 331.151 125.327 314.135 125.327 314.135 49.7381 346.857 49.7381C356.673 49.7381 364.199 52.0285 369.764 56.6097 375.326 61.1909 377.944 67.7354 377.944 75.9159 377.944 81.8058 376.633 86.7142 374.343 90.9682 372.052 95.222 368.454 98.167 363.872 100.458L379.908 125.327 360.274 125.327ZM330.825 89.332 346.53 89.332C351.438 89.332 355.039 88.3504 357.327 86.0599 359.948 83.7692 361.255 80.4971 361.255 76.243 361.255 71.9892 359.948 69.0442 357.327 66.7538 354.709 64.7904 351.111 63.4813 346.53 63.4813L330.825 63.4813 330.825 89.332Z" fill="#C03425" transform="matrix(1.00579 0 0 1 2094 1146.7)"/><path d="M392.015 49.7381 449.605 49.7381 449.605 63.8088 409.031 63.8088 409.031 80.17 445.353 80.17 445.353 94.2404 409.031 94.2404 409.031 110.929 450.588 110.929 450.588 124.999 391.688 124.999 391.688 49.7381Z" fill="#C03425" transform="matrix(1.00579 0 0 1 2094 1146.7)"/><path d="M464.329 49.7381 483.309 49.7381 506.87 96.2037 530.102 49.7381 549.081 49.7381 549.081 125.327 533.703 125.327 533.703 74.2796 512.106 117.801 500.978 117.801 479.381 74.2796 479.381 125.327 464.003 125.327 464.003 49.7381Z" fill="#C03425" transform="matrix(1.00579 0 0 1 2094 1146.7)"/><path d="M565.77 49.7381 582.786 49.7381 582.786 125.327 565.77 125.327 565.77 49.7381Z" fill="#C03425" transform="matrix(1.00579 0 0 1 2094 1146.7)"/><path d="M637.104 65.1176C632.849 63.8088 628.925 63.1542 625.98 63.1542 623.033 63.1542 620.742 63.8088 619.108 64.7904 617.471 65.7721 616.491 67.408 616.491 69.6988 616.491 72.3163 617.798 74.2796 620.089 75.9159 622.706 77.225 626.307 78.8608 631.542 80.17 636.777 81.8058 641.032 83.1149 644.303 84.7508 647.574 86.387 650.522 88.6775 652.813 91.6228 655.1 94.5678 656.411 98.4944 656.411 103.73 656.411 108.638 655.1 112.565 652.483 116.164 649.865 119.764 646.267 122.382 642.013 124.018 637.758 125.654 632.523 126.636 626.634 126.636 620.415 126.636 614.527 125.654 608.635 123.363 602.746 121.073 597.511 118.128 593.256 114.528L600.128 100.458C604.056 104.057 608.308 106.675 613.216 108.638 618.125 110.602 622.706 111.911 626.961 111.911 630.559 111.911 633.18 111.256 635.14 109.947 637.104 108.638 638.088 106.675 638.088 104.384 638.088 102.421 637.431 100.785 636.124 99.4761 634.813 98.167 633.18 97.1853 630.889 96.5311 628.598 95.8766 625.98 94.8949 622.379 93.9132 617.144 92.6045 612.889 90.9682 609.618 89.6591 606.347 88.3504 603.4 86.0599 601.109 83.1149 598.818 80.17 597.511 76.243 597.511 71.3347 597.511 66.7538 598.818 62.8268 601.109 59.5547 603.4 56.2826 607.001 53.6647 611.255 51.7014 615.507 49.7381 620.742 49.0835 626.634 49.0835 631.869 49.0835 636.777 49.7381 642.013 51.3743 647.248 53.0102 651.502 54.9735 655.43 57.2643L648.885 71.3347C645.284 68.3897 641.359 66.4263 637.104 65.1176Z" fill="#C03425" transform="matrix(1.00579 0 0 1 2094 1146.7)"/><path d="M668.191 49.7381 725.781 49.7381 725.781 63.8088 685.207 63.8088 685.207 80.17 721.529 80.17 721.529 94.2404 685.207 94.2404 685.207 110.929 726.764 110.929 726.764 124.999 667.865 124.999 667.865 49.7381Z" fill="#C03425" transform="matrix(1.00579 0 0 1 2094 1146.7)"/><path d="M79.8425 161.321C79.8425 169.815 72.9568 176.701 64.463 176.701 55.9692 176.701 49.0835 169.815 49.0835 161.321 49.0835 152.827 55.9692 145.942 64.463 145.942 72.9568 145.942 79.8425 152.827 79.8425 161.321Z" stroke="#C03425" stroke-width="9.8167" stroke-miterlimit="10" fill="#FFFFFF" transform="matrix(1.00579 0 0 1 2094 1146.7)"/><path d="M161.649 161.321C161.649 169.815 154.763 176.701 146.269 176.701 137.775 176.701 130.889 169.815 130.889 161.321 130.889 152.827 137.775 145.942 146.269 145.942 154.763 145.942 161.649 152.827 161.649 161.321Z" stroke="#C03425" stroke-width="9.8167" stroke-miterlimit="10" fill="#FFFFFF" transform="matrix(1.00579 0 0 1 2094 1146.7)"/><path d="M161.649 20.2879C161.649 28.7817 154.763 35.6673 146.269 35.6673 137.775 35.6673 130.889 28.7817 130.889 20.2879 130.889 11.794 137.775 4.90835 146.269 4.90835 154.763 4.90835 161.649 11.794 161.649 20.2879Z" stroke="#C03425" stroke-width="9.8167" stroke-miterlimit="10" fill="#FFFFFF" transform="matrix(1.00579 0 0 1 2094 1146.7)"/><path d="M79.8425 20.2879C79.8425 28.7817 72.9568 35.6673 64.463 35.6673 55.9692 35.6673 49.0835 28.7817 49.0835 20.2879 49.0835 11.794 55.9692 4.90835 64.463 4.90835 72.9568 4.90835 79.8425 11.794 79.8425 20.2879Z" stroke="#C03425" stroke-width="9.8167" stroke-miterlimit="10" fill="#FFFFFF" transform="matrix(1.00579 0 0 1 2094 1146.7)"/><path d="M182.264 99.1487 198.625 115.51 204.188 109.293 188.154 93.2587 182.264 93.2587Z" fill="#068172" transform="matrix(1.00579 0 0 1 2094 1146.7)"/><path d="M177.355 99.1487 161.321 115.51 155.431 109.293 171.792 93.2587 177.355 93.2587Z" fill="#068172" transform="matrix(1.00579 0 0 1 2094 1146.7)"/><path d="M177.355 82.4604 161.321 66.4263 155.431 72.3163 171.792 88.3504 177.355 88.3504Z" fill="#068172" transform="matrix(1.00579 0 0 1 2094 1146.7)"/><path d="M182.264 82.4604 198.625 66.4263 204.188 72.3163 188.154 88.3504 182.264 88.3504Z" fill="#068172" transform="matrix(1.00579 0 0 1 2094 1146.7)"/><path d="M52.0285 77.5521C45.1568 65.4447 29.7773 61.518 17.6701 68.3897 17.6701 68.3897 17.6701 68.3897 17.6701 68.3897 11.4528 71.9892 6.87171 78.2066 5.5628 85.4054L23.2329 85.4054 23.2329 78.2066 33.704 84.0966 44.1752 89.9866 33.704 95.8766 23.2329 101.767 23.2329 94.2404 5.5628 94.2404C6.21726 96.8582 7.19892 99.4761 8.50783 102.094 15.3795 114.201 30.759 118.128 42.8664 111.256 42.8664 111.256 42.8664 111.256 42.8664 111.256 54.6464 104.712 58.9001 90.3137 52.683 78.5337 52.3559 78.2066 52.3559 77.8792 52.0285 77.5521" fill="#0096DE" fill-rule="evenodd" transform="matrix(1.00579 0 0 1 2094 1146.7)"/></g></g></g></g></g></svg>
