<?xml version="1.0" encoding="utf-8"?>
<!-- Generator: Adobe Illustrator 24.2.3, SVG Export Plug-In . SVG Version: 6.00 Build 0)  -->
<svg version="1.1" id="Ebene_1" xmlns="http://www.w3.org/2000/svg" xmlns:xlink="http://www.w3.org/1999/xlink" x="0px" y="0px"
	 viewBox="0 0 223.7 55.5" style="enable-background:new 0 0 223.7 55.5;" xml:space="preserve">
<style type="text/css">
	.st0{fill:none;stroke:#C03425;stroke-width:3;stroke-miterlimit:10;}
	.st1{enable-background:new    ;}
	.st2{fill:#C03425;}
	.st3{fill:#FFFFFF;stroke:#C03425;stroke-width:3;stroke-miterlimit:10;}
	.st4{fill:#068172;}
	.st5{fill-rule:evenodd;clip-rule:evenodd;fill:#0096DE;}
</style>
<path class="st0" d="M54.1,21.6L45,5.9H20.1l-7.4,12.8"/>
<path class="st0" d="M12.8,36.3L20.1,49H45l8.7-15"/>
<g class="st1">
	<path class="st2" d="M90.2,17.3c1.6,1.4,2.4,3.4,2.4,5.9c0,2.7-0.8,4.8-2.4,6.3c-1.6,1.5-3.9,2.2-6.8,2.2h-4.6v6.6h-5.2V15.2h9.8
		C86.3,15.2,88.6,15.9,90.2,17.3z M86.5,26.3c0.8-0.7,1.2-1.7,1.2-3c0-1.3-0.4-2.2-1.2-2.9c-0.8-0.6-1.9-1-3.4-1h-4.3v7.8h4.3
		C84.6,27.3,85.7,27,86.5,26.3z"/>
	<path class="st2" d="M110.1,38.3l-3.7-6.6H106h-4.8v6.6h-5.2V15.2h10c3,0,5.3,0.7,7,2.1c1.7,1.4,2.5,3.4,2.5,5.9
		c0,1.8-0.4,3.3-1.1,4.6c-0.7,1.3-1.8,2.2-3.2,2.9l4.9,7.6H110.1z M101.1,27.3h4.8c1.5,0,2.6-0.3,3.3-1c0.8-0.7,1.2-1.7,1.2-3
		c0-1.3-0.4-2.2-1.2-2.9c-0.8-0.6-1.9-1-3.3-1h-4.8V27.3z"/>
	<path class="st2" d="M119.8,15.2h17.6v4.3H125v5h11.1v4.3H125v5.1h12.7v4.3h-18V15.2z"/>
	<path class="st2" d="M141.9,15.2h5.8l7.2,14.2l7.1-14.2h5.8v23.1h-4.7V22.7l-6.6,13.3h-3.4l-6.6-13.3v15.6h-4.7V15.2z"/>
	<path class="st2" d="M172.9,15.2h5.2v23.1h-5.2V15.2z"/>
	<path class="st2" d="M194.7,19.9c-1.3-0.4-2.5-0.6-3.4-0.6c-0.9,0-1.6,0.2-2.1,0.5c-0.5,0.3-0.8,0.8-0.8,1.5c0,0.8,0.4,1.4,1.1,1.9
		c0.8,0.4,1.9,0.9,3.5,1.3c1.6,0.5,2.9,0.9,3.9,1.4c1,0.5,1.9,1.2,2.6,2.1c0.7,0.9,1.1,2.1,1.1,3.7c0,1.5-0.4,2.7-1.2,3.8
		c-0.8,1.1-1.9,1.9-3.2,2.4s-2.9,0.8-4.7,0.8c-1.9,0-3.7-0.3-5.5-1c-1.8-0.7-3.4-1.6-4.7-2.7l2.1-4.3c1.2,1.1,2.5,1.9,4,2.5
		c1.5,0.6,2.9,1,4.2,1c1.1,0,1.9-0.2,2.5-0.6c0.6-0.4,0.9-1,0.9-1.7c0-0.6-0.2-1.1-0.6-1.5s-0.9-0.7-1.6-0.9s-1.5-0.5-2.6-0.8
		c-1.6-0.4-2.9-0.9-3.9-1.3c-1-0.4-1.9-1.1-2.6-2c-0.7-0.9-1.1-2.1-1.1-3.6c0-1.4,0.4-2.6,1.1-3.6c0.7-1,1.8-1.8,3.1-2.4
		s2.9-0.8,4.7-0.8c1.6,0,3.1,0.2,4.7,0.7s2.9,1.1,4.1,1.8l-2,4.3C197.2,20.9,196,20.3,194.7,19.9z"/>
	<path class="st2" d="M204.2,15.2h17.6v4.3h-12.4v5h11.1v4.3h-11.1v5.1h12.7v4.3h-18V15.2z"/>
</g>
<circle class="st3" cx="19.7" cy="49.3" r="4.7"/>
<circle class="st3" cx="44.7" cy="49.3" r="4.7"/>
<circle class="st3" cx="44.7" cy="6.2" r="4.7"/>
<circle class="st3" cx="19.7" cy="6.2" r="4.7"/>
<g id="g19">
	<g id="g21">
		<g id="g23">
			<polygon id="polygon25" class="st4" points="55.7,30.3 60.7,35.3 62.4,33.4 57.5,28.5 55.7,28.5 			"/>
		</g>
		<g id="g27">
			<g id="g29">
				<polygon id="polygon31" class="st4" points="54.2,30.3 49.3,35.3 47.5,33.4 52.5,28.5 54.2,28.5 				"/>
			</g>
			<g id="g33">
				<polygon id="polygon35" class="st4" points="54.2,25.2 49.3,20.3 47.5,22.1 52.5,27 54.2,27 				"/>
			</g>
		</g>
	</g>
	<g id="g37">
		<polygon id="polygon39" class="st4" points="55.7,25.2 60.7,20.3 62.4,22.1 57.5,27 55.7,27 		"/>
	</g>
</g>
<path id="path12730" class="st5" d="M15.9,23.7c-2.1-3.7-6.8-4.9-10.5-2.8c0,0,0,0,0,0c-1.9,1.1-3.3,3-3.7,5.2h5.4v-2.2l3.2,1.8
	l3.2,1.8l-3.2,1.8l-3.2,1.8v-2.3H1.7c0.2,0.8,0.5,1.6,0.9,2.4c2.1,3.7,6.8,4.9,10.5,2.8c0,0,0,0,0,0c3.6-2,4.9-6.4,3-10
	C16,23.9,16,23.8,15.9,23.7"/>
</svg>
